<mxfile host="app.diagrams.net" modified="2022-02-01T06:27:38.532Z" agent="5.0 (Windows NT 10.0; Win64; x64) AppleWebKit/537.36 (KHTML, like Gecko) Chrome/97.0.4692.99 Safari/537.36" etag="1FMhD7AYrrqEilm6Ubu1" version="15.1.1" type="github">
  <diagram id="fdmEnKUR2OzU24qQVM1Q" name="第 1 页">
    <mxGraphModel dx="583" dy="363" grid="1" gridSize="10" guides="1" tooltips="1" connect="1" arrows="1" fold="1" page="1" pageScale="1" pageWidth="827" pageHeight="1169" math="0" shadow="0">
      <root>
        <mxCell id="0" />
        <mxCell id="1" parent="0" />
        <mxCell id="H6RojgO4TnuaBIyDNX_I-35" value="" style="group" vertex="1" connectable="0" parent="1">
          <mxGeometry x="209" y="470" width="410" height="350" as="geometry" />
        </mxCell>
        <mxCell id="H6RojgO4TnuaBIyDNX_I-33" style="edgeStyle=orthogonalEdgeStyle;rounded=0;orthogonalLoop=1;jettySize=auto;html=1;" edge="1" parent="H6RojgO4TnuaBIyDNX_I-35" source="H6RojgO4TnuaBIyDNX_I-2">
          <mxGeometry relative="1" as="geometry">
            <mxPoint x="230" y="262" as="targetPoint" />
          </mxGeometry>
        </mxCell>
        <mxCell id="H6RojgO4TnuaBIyDNX_I-2" value="入口文件src/index.js" style="whiteSpace=wrap;html=1;" vertex="1" parent="H6RojgO4TnuaBIyDNX_I-35">
          <mxGeometry x="160" y="40" width="140" height="70" as="geometry" />
        </mxCell>
        <mxCell id="H6RojgO4TnuaBIyDNX_I-14" value="文件a.js" style="ellipse;whiteSpace=wrap;html=1;" vertex="1" parent="H6RojgO4TnuaBIyDNX_I-35">
          <mxGeometry y="250" width="120" height="80" as="geometry" />
        </mxCell>
        <mxCell id="H6RojgO4TnuaBIyDNX_I-9" style="edgeStyle=orthogonalEdgeStyle;rounded=0;orthogonalLoop=1;jettySize=auto;html=1;entryX=0.5;entryY=0;entryDx=0;entryDy=0;" edge="1" parent="H6RojgO4TnuaBIyDNX_I-35" source="H6RojgO4TnuaBIyDNX_I-2" target="H6RojgO4TnuaBIyDNX_I-14">
          <mxGeometry relative="1" as="geometry">
            <mxPoint x="130" y="210" as="targetPoint" />
            <Array as="points">
              <mxPoint x="230" y="190" />
              <mxPoint x="60" y="190" />
            </Array>
          </mxGeometry>
        </mxCell>
        <mxCell id="H6RojgO4TnuaBIyDNX_I-17" value="文件b.js" style="ellipse;whiteSpace=wrap;html=1;" vertex="1" parent="H6RojgO4TnuaBIyDNX_I-35">
          <mxGeometry x="140" y="250" width="120" height="80" as="geometry" />
        </mxCell>
        <mxCell id="H6RojgO4TnuaBIyDNX_I-20" value="style.css" style="ellipse;whiteSpace=wrap;html=1;" vertex="1" parent="H6RojgO4TnuaBIyDNX_I-35">
          <mxGeometry x="290" y="250" width="120" height="80" as="geometry" />
        </mxCell>
        <mxCell id="H6RojgO4TnuaBIyDNX_I-30" style="edgeStyle=orthogonalEdgeStyle;rounded=0;orthogonalLoop=1;jettySize=auto;html=1;entryX=0.5;entryY=1;entryDx=0;entryDy=0;strokeColor=#FF0000;" edge="1" parent="H6RojgO4TnuaBIyDNX_I-35" source="H6RojgO4TnuaBIyDNX_I-14" target="H6RojgO4TnuaBIyDNX_I-20">
          <mxGeometry relative="1" as="geometry">
            <Array as="points">
              <mxPoint x="70" y="350" />
              <mxPoint x="350" y="350" />
            </Array>
          </mxGeometry>
        </mxCell>
        <mxCell id="H6RojgO4TnuaBIyDNX_I-22" value="&lt;font color=&quot;#ff0000&quot;&gt;1.&lt;/font&gt;" style="text;html=1;align=center;verticalAlign=middle;resizable=0;points=[];autosize=1;strokeColor=none;fillColor=none;" vertex="1" parent="H6RojgO4TnuaBIyDNX_I-35">
          <mxGeometry x="160" y="50" width="30" height="20" as="geometry" />
        </mxCell>
        <mxCell id="H6RojgO4TnuaBIyDNX_I-27" value="&lt;font color=&quot;#ff0000&quot;&gt;模块&lt;/font&gt;" style="text;html=1;align=center;verticalAlign=middle;resizable=0;points=[];autosize=1;strokeColor=none;fillColor=none;" vertex="1" parent="H6RojgO4TnuaBIyDNX_I-35">
          <mxGeometry x="334" y="260" width="40" height="20" as="geometry" />
        </mxCell>
        <mxCell id="H6RojgO4TnuaBIyDNX_I-28" value="&lt;font color=&quot;#ff0000&quot;&gt;模块&lt;/font&gt;" style="text;html=1;align=center;verticalAlign=middle;resizable=0;points=[];autosize=1;strokeColor=none;fillColor=none;" vertex="1" parent="H6RojgO4TnuaBIyDNX_I-35">
          <mxGeometry x="170" y="260" width="40" height="20" as="geometry" />
        </mxCell>
        <mxCell id="H6RojgO4TnuaBIyDNX_I-29" value="&lt;font color=&quot;#ff0000&quot;&gt;模块&lt;/font&gt;" style="text;html=1;align=center;verticalAlign=middle;resizable=0;points=[];autosize=1;strokeColor=none;fillColor=none;" vertex="1" parent="H6RojgO4TnuaBIyDNX_I-35">
          <mxGeometry x="30" y="260" width="40" height="20" as="geometry" />
        </mxCell>
        <mxCell id="H6RojgO4TnuaBIyDNX_I-34" value="&lt;font style=&quot;font-size: 22px&quot; color=&quot;#ff0000&quot;&gt;webpack依赖图&lt;/font&gt;" style="text;html=1;align=center;verticalAlign=middle;resizable=0;points=[];autosize=1;strokeColor=none;fillColor=none;" vertex="1" parent="H6RojgO4TnuaBIyDNX_I-35">
          <mxGeometry x="145" width="170" height="20" as="geometry" />
        </mxCell>
        <mxCell id="H6RojgO4TnuaBIyDNX_I-36" value="" style="group" vertex="1" connectable="0" parent="1">
          <mxGeometry x="80" y="300" width="690" height="95" as="geometry" />
        </mxCell>
        <mxCell id="H6RojgO4TnuaBIyDNX_I-21" value="&lt;font color=&quot;#ff0000&quot;&gt;1.webpack进行打包的时候，首先会找到入口文件；&lt;br&gt;&lt;br&gt;&lt;/font&gt;" style="text;html=1;align=center;verticalAlign=middle;resizable=0;points=[];autosize=1;strokeColor=none;fillColor=none;" vertex="1" parent="H6RojgO4TnuaBIyDNX_I-36">
          <mxGeometry width="290" height="30" as="geometry" />
        </mxCell>
        <mxCell id="H6RojgO4TnuaBIyDNX_I-23" value="&lt;span style=&quot;color: rgb(255 , 0 , 0)&quot;&gt;2.然后在入口文件里找，入口文件用到了那些模块；&lt;/span&gt;" style="text;html=1;align=center;verticalAlign=middle;resizable=0;points=[];autosize=1;strokeColor=none;fillColor=none;" vertex="1" parent="H6RojgO4TnuaBIyDNX_I-36">
          <mxGeometry y="15" width="290" height="20" as="geometry" />
        </mxCell>
        <mxCell id="H6RojgO4TnuaBIyDNX_I-24" value="&lt;font color=&quot;#ff0000&quot;&gt;3.如果，入口文件没有引用到style.css这个文件，那么webpack进行打包的时候，它是不会对style.css这个文件进行打包的&lt;/font&gt;" style="text;html=1;align=center;verticalAlign=middle;resizable=0;points=[];autosize=1;strokeColor=none;fillColor=none;" vertex="1" parent="H6RojgO4TnuaBIyDNX_I-36">
          <mxGeometry y="35" width="660" height="20" as="geometry" />
        </mxCell>
        <mxCell id="H6RojgO4TnuaBIyDNX_I-25" value="&lt;font color=&quot;#ff0000&quot;&gt;4.还有一种情况：如果入口文件没有引用到style.css文件，但是其他模块有引用到这个style.css文件，那么style.css也会进行打包&lt;/font&gt;" style="text;html=1;align=center;verticalAlign=middle;resizable=0;points=[];autosize=1;strokeColor=none;fillColor=none;" vertex="1" parent="H6RojgO4TnuaBIyDNX_I-36">
          <mxGeometry y="55" width="690" height="20" as="geometry" />
        </mxCell>
        <mxCell id="H6RojgO4TnuaBIyDNX_I-26" value="&lt;span style=&quot;color: rgb(255 , 0 , 0)&quot;&gt;，前提是其他模块已经被入口文件引入了&lt;/span&gt;" style="text;html=1;align=center;verticalAlign=middle;resizable=0;points=[];autosize=1;strokeColor=none;fillColor=none;" vertex="1" parent="H6RojgO4TnuaBIyDNX_I-36">
          <mxGeometry y="75" width="230" height="20" as="geometry" />
        </mxCell>
      </root>
    </mxGraphModel>
  </diagram>
</mxfile>
